<svg xmlns="http://www.w3.org/2000/svg" xmlns:xlink="http://www.w3.org/1999/xlink" width="40" zoomAndPan="magnify" viewBox="0 0 30 30.000001" height="40" preserveAspectRatio="xMidYMid meet" version="1.0"><defs><clipPath id="9cef3b5b35"><path d="M 2.84375 0.621094 L 27.519531 0.621094 L 27.519531 8 L 2.84375 8 Z M 2.84375 0.621094 " clip-rule="nonzero"/></clipPath><clipPath id="60db3faa4e"><path d="M 4 9 L 26 9 L 26 28.203125 L 4 28.203125 Z M 4 9 " clip-rule="nonzero"/></clipPath></defs><g clip-path="url(#9cef3b5b35)"><path fill="#ff3131" d="M 26.289062 4.03125 L 20.210938 4.03125 L 20.210938 1.492188 C 20.210938 1.011719 19.820312 0.621094 19.339844 0.621094 L 10.660156 0.621094 C 10.179688 0.621094 9.789062 1.011719 9.789062 1.492188 L 9.789062 4.03125 L 3.710938 4.03125 C 3.234375 4.03125 2.84375 4.421875 2.84375 4.898438 L 2.84375 6.636719 C 2.84375 7.113281 3.234375 7.503906 3.710938 7.503906 L 26.289062 7.503906 C 26.765625 7.503906 27.15625 7.113281 27.15625 6.636719 L 27.15625 4.898438 C 27.15625 4.421875 26.765625 4.03125 26.289062 4.03125 Z M 26.289062 4.03125 " fill-opacity="1" fill-rule="nonzero"/></g><g clip-path="url(#60db3faa4e)"><path fill="#ff3131" d="M 6.664062 27.648438 C 6.707031 28.082031 7.078125 28.40625 7.53125 28.40625 L 22.488281 28.40625 C 22.921875 28.40625 23.292969 28.082031 23.355469 27.648438 L 25.441406 9.328125 L 4.582031 9.328125 Z M 18.472656 24.824219 L 19.992188 12.691406 C 20.058594 12.214844 20.492188 11.886719 20.96875 11.929688 C 21.445312 11.996094 21.773438 12.429688 21.730469 12.90625 L 20.210938 25.042969 C 20.144531 25.476562 19.777344 25.800781 19.339844 25.800781 C 19.296875 25.800781 19.277344 25.800781 19.234375 25.800781 C 18.753906 25.738281 18.429688 25.304688 18.472656 24.824219 Z M 14.132812 12.800781 C 14.132812 12.320312 14.523438 11.929688 15 11.929688 C 15.476562 11.929688 15.867188 12.320312 15.867188 12.800781 L 15.867188 24.933594 C 15.867188 25.410156 15.476562 25.800781 15 25.800781 C 14.523438 25.800781 14.132812 25.410156 14.132812 24.933594 Z M 9.03125 11.929688 C 9.507812 11.867188 9.941406 12.214844 10.007812 12.691406 L 11.527344 24.824219 C 11.59375 25.304688 11.246094 25.738281 10.765625 25.800781 C 10.722656 25.800781 10.703125 25.800781 10.660156 25.800781 C 10.222656 25.800781 9.855469 25.476562 9.789062 25.042969 L 8.269531 12.90625 C 8.226562 12.429688 8.554688 11.996094 9.03125 11.929688 Z M 9.03125 11.929688 " fill-opacity="1" fill-rule="nonzero"/></g><path stroke-linecap="butt" transform="matrix(0.725806, 0, 0, 0.725806, 10.354838, 1.451615)" fill="none" stroke-linejoin="miter" d="M 0.000868836 1.998782 L 12.799133 1.998782 " stroke="#ff3131" stroke-width="4" stroke-opacity="1" stroke-miterlimit="4"/></svg>